<svg width="20" height="20" viewBox="0 0 20 20" fill="none" xmlns="http://www.w3.org/2000/svg">
<path d="M16.6667 5H3.33333C3.11232 5 2.90036 5.0878 2.74408 5.24408C2.5878 5.40036 2.5 5.61232 2.5 5.83333V14.1667C2.5 14.3877 2.5878 14.5996 2.74408 14.7559C2.90036 14.9122 3.11232 15 3.33333 15H16.6667C16.8877 15 17.0996 14.9122 17.2559 14.7559C17.4122 14.5996 17.5 14.3877 17.5 14.1667V5.83333C17.5 5.61232 17.4122 5.40036 17.2559 5.24408C17.0996 5.0878 16.8877 5 16.6667 5Z" stroke="#4D0814" stroke-linejoin="round"/>
<path d="M2.5 6.66666L9.075 11.05C9.34888 11.2327 9.67075 11.3302 10 11.3302C10.3292 11.3302 10.6511 11.2327 10.925 11.05L17.5 6.66666" stroke="#4D0814" stroke-linecap="round"/>
</svg>
