<svg width="23" height="18" viewBox="0 0 23 18" fill="none" xmlns="http://www.w3.org/2000/svg">
<path d="M16.7424 13.6094C16.1221 12.9844 14.6198 12.0723 13.8909 11.7047C12.9416 11.2266 12.8635 11.1875 12.1174 11.7418C11.6198 12.1117 11.2889 12.4422 10.7065 12.318C10.1241 12.1938 8.85843 11.4934 7.75022 10.3887C6.64202 9.28398 5.90101 7.98164 5.7764 7.40117C5.65179 6.8207 5.98772 6.49375 6.35413 5.99492C6.87054 5.2918 6.83147 5.17461 6.39007 4.22539C6.04593 3.48711 5.10726 1.99883 4.47991 1.38164C3.80882 0.718751 3.80882 0.835938 3.3764 1.01563C3.02435 1.16375 2.68661 1.3438 2.36741 1.55352C1.74241 1.96875 1.39554 2.31367 1.15296 2.83203C0.91038 3.35039 0.801396 4.56563 2.05413 6.84141C3.30686 9.11719 4.18577 10.2809 6.00491 12.0949C7.82405 13.909 9.22288 14.8844 11.2678 16.0313C13.7975 17.448 14.7678 17.1719 15.2877 16.9297C15.8076 16.6875 16.1541 16.3438 16.5701 15.7188C16.7804 15.4001 16.9609 15.0627 17.1092 14.7109C17.2893 14.2801 17.4065 14.2801 16.7424 13.6094Z" stroke="white" stroke-miterlimit="10"/>
<rect width="12" height="10" transform="translate(11)" fill="#4D0814"/>
<path d="M18 7.5L17.3 6.89583L19.075 5.41667H13V4.58333H19.075L17.3 3.10417L18 2.5L21 5L18 7.5Z" fill="white"/>
</svg>
