<svg width="92" height="92" viewBox="0 0 92 92" fill="none" xmlns="http://www.w3.org/2000/svg">
<path d="M87.6875 17.25H66.125V15.8125H66.1121C66.1144 15.6245 66.0796 15.438 66.0095 15.2635C65.9394 15.0891 65.8355 14.9303 65.7038 14.7962L54.2038 3.29619C54.0697 3.16465 53.9108 3.06097 53.7363 2.99115C53.5619 2.92133 53.3754 2.88674 53.1875 2.88937V2.875H15.8125C15.4313 2.875 15.0656 3.02645 14.796 3.29603C14.5265 3.56562 14.375 3.93125 14.375 4.3125V17.25H4.3125C3.93125 17.25 3.56562 17.4015 3.29603 17.671C3.02645 17.9406 2.875 18.3063 2.875 18.6875V73.3125C2.875 73.6937 3.02645 74.0594 3.29603 74.329C3.56562 74.5985 3.93125 74.75 4.3125 74.75H41.6875V80.5H33.0625C32.6813 80.5001 32.3157 80.6516 32.0462 80.9212L26.2962 86.6712C26.0952 86.8722 25.9584 87.1283 25.9029 87.4071C25.8475 87.686 25.8759 87.9749 25.9847 88.2376C26.0935 88.5002 26.2777 88.7247 26.514 88.8826C26.7504 89.0406 27.0282 89.1249 27.3125 89.125H64.6875C64.9718 89.1249 65.2496 89.0406 65.486 88.8826C65.7223 88.7247 65.9065 88.5002 66.0153 88.2376C66.1241 87.9749 66.1525 87.686 66.0971 87.4071C66.0416 87.1283 65.9048 86.8722 65.7038 86.6712L59.9538 80.9212C59.6843 80.6516 59.3187 80.5001 58.9375 80.5H50.3125V74.75H87.6875C88.0687 74.75 88.4344 74.5985 88.704 74.329C88.9735 74.0594 89.125 73.6937 89.125 73.3125V18.6875C89.125 18.3063 88.9735 17.9406 88.704 17.671C88.4344 17.4015 88.0687 17.25 87.6875 17.25ZM86.25 20.125V34.5H83.375V24.4375C83.375 24.0563 83.2235 23.6906 82.954 23.421C82.6844 23.1514 82.3187 23 81.9375 23H66.125V20.125H86.25ZM66.125 25.875H80.5V34.5H66.125V25.875ZM54.625 7.78263L61.2174 14.375H54.625V7.78263ZM17.25 5.75H51.75V15.8125C51.75 16.1937 51.9015 16.5594 52.171 16.829C52.4406 17.0985 52.8063 17.25 53.1875 17.25H63.25V34.5H61.8125C61.4313 34.5 61.0656 34.6514 60.796 34.921C60.5265 35.1906 60.375 35.5563 60.375 35.9375V66.125H17.25V5.75ZM11.5 66.125V25.875H14.375V66.125H11.5ZM5.75 20.125H14.375V23H10.0625C9.68125 23 9.31562 23.1514 9.04603 23.421C8.77645 23.6906 8.625 24.0563 8.625 24.4375V67.5625C8.625 67.9437 8.77645 68.3094 9.04603 68.579C9.31562 68.8485 9.68125 69 10.0625 69H60.375V71.875H5.75V20.125ZM61.2174 86.25H30.7826L33.6576 83.375H58.3424L61.2174 86.25ZM47.4375 80.5H44.5625V74.75H47.4375V80.5ZM86.25 71.875H63.25V37.375H86.25V71.875Z" fill="#4D0814"/>
<path d="M40.25 34.5C42.5245 34.5 44.7479 33.8256 46.6391 32.5619C48.5302 31.2983 50.0042 29.5022 50.8746 27.4009C51.745 25.2995 51.9728 22.9873 51.529 20.7565C51.0853 18.5257 49.99 16.4766 48.3817 14.8683C46.7734 13.26 44.7243 12.1647 42.4935 11.721C40.2628 11.2772 37.9505 11.505 35.8491 12.3754C33.7478 13.2458 31.9517 14.7198 30.6881 16.6109C29.4245 18.5021 28.75 20.7255 28.75 23C28.7534 26.049 29.9661 28.972 32.1221 31.128C34.278 33.2839 37.2011 34.4966 40.25 34.5ZM48.7456 21.5625H41.6875V14.5044C43.4498 14.8056 45.0753 15.6463 46.3395 16.9105C47.6037 18.1747 48.4444 19.8002 48.7456 21.5625ZM38.8125 14.5044V23C38.8125 23.3813 38.964 23.7469 39.2335 24.0165C39.5031 24.2861 39.8688 24.4375 40.25 24.4375H48.7456C48.4836 25.9996 47.7964 27.4594 46.7595 28.6568C45.7226 29.8542 44.3759 30.7429 42.8673 31.2255C41.3586 31.7081 39.7462 31.7659 38.2069 31.3926C36.6675 31.0193 35.2607 30.2293 34.1407 29.1093C33.0207 27.9893 32.2307 26.5825 31.8574 25.0431C31.4841 23.5038 31.542 21.8914 32.0245 20.3827C32.5071 18.8741 33.3958 17.5275 34.5932 16.4905C35.7906 15.4536 37.2504 14.7664 38.8125 14.5044Z" fill="#4D0814"/>
<path d="M20.125 37.375H23V40.25H20.125V37.375Z" fill="#4D0814"/>
<path d="M25.875 37.375H57.5V40.25H25.875V37.375Z" fill="#4D0814"/>
<path d="M20.125 43.125H23V46H20.125V43.125Z" fill="#4D0814"/>
<path d="M25.875 43.125H57.5V46H25.875V43.125Z" fill="#4D0814"/>
<path d="M20.125 48.875H23V51.75H20.125V48.875Z" fill="#4D0814"/>
<path d="M25.875 48.875H57.5V51.75H25.875V48.875Z" fill="#4D0814"/>
<path d="M20.125 54.625H23V57.5H20.125V54.625Z" fill="#4D0814"/>
<path d="M25.875 54.625H57.5V57.5H25.875V54.625Z" fill="#4D0814"/>
<path d="M20.125 60.375H23V63.25H20.125V60.375Z" fill="#4D0814"/>
<path d="M25.875 60.375H57.5V63.25H25.875V60.375Z" fill="#4D0814"/>
<path d="M66.125 50.3125H83.375C83.7562 50.3125 84.1219 50.1611 84.3915 49.8915C84.6611 49.6219 84.8125 49.2562 84.8125 48.875V40.25C84.8125 39.8688 84.6611 39.5031 84.3915 39.2335C84.1219 38.9639 83.7562 38.8125 83.375 38.8125H66.125C65.7438 38.8125 65.3781 38.9639 65.1085 39.2335C64.8389 39.5031 64.6875 39.8688 64.6875 40.25V48.875C64.6875 49.2562 64.8389 49.6219 65.1085 49.8915C65.3781 50.1611 65.7438 50.3125 66.125 50.3125ZM67.5625 41.6875H81.9375V47.4375H67.5625V41.6875Z" fill="#4D0814"/>
<path d="M66.125 60.375H71.875C72.2562 60.375 72.6219 60.2236 72.8915 59.954C73.1611 59.6844 73.3125 59.3187 73.3125 58.9375V53.1875C73.3125 52.8063 73.1611 52.4406 72.8915 52.171C72.6219 51.9014 72.2562 51.75 71.875 51.75H66.125C65.7438 51.75 65.3781 51.9014 65.1085 52.171C64.8389 52.4406 64.6875 52.8063 64.6875 53.1875V58.9375C64.6875 59.3187 64.8389 59.6844 65.1085 59.954C65.3781 60.2236 65.7438 60.375 66.125 60.375ZM67.5625 54.625H70.4375V57.5H67.5625V54.625Z" fill="#4D0814"/>
<path d="M83.375 51.75H77.625C77.2438 51.75 76.8781 51.9014 76.6085 52.171C76.3389 52.4406 76.1875 52.8063 76.1875 53.1875V58.9375C76.1875 59.3187 76.3389 59.6844 76.6085 59.954C76.8781 60.2236 77.2438 60.375 77.625 60.375H83.375C83.7562 60.375 84.1219 60.2236 84.3915 59.954C84.6611 59.6844 84.8125 59.3187 84.8125 58.9375V53.1875C84.8125 52.8063 84.6611 52.4406 84.3915 52.171C84.1219 51.9014 83.7562 51.75 83.375 51.75ZM81.9375 57.5H79.0625V54.625H81.9375V57.5Z" fill="#4D0814"/>
<path d="M66.125 70.4375H71.875C72.2562 70.4375 72.6219 70.2861 72.8915 70.0165C73.1611 69.7469 73.3125 69.3812 73.3125 69V63.25C73.3125 62.8688 73.1611 62.5031 72.8915 62.2335C72.6219 61.9639 72.2562 61.8125 71.875 61.8125H66.125C65.7438 61.8125 65.3781 61.9639 65.1085 62.2335C64.8389 62.5031 64.6875 62.8688 64.6875 63.25V69C64.6875 69.3812 64.8389 69.7469 65.1085 70.0165C65.3781 70.2861 65.7438 70.4375 66.125 70.4375ZM67.5625 64.6875H70.4375V67.5625H67.5625V64.6875Z" fill="#4D0814"/>
<path d="M83.375 61.8125H77.625C77.2438 61.8125 76.8781 61.9639 76.6085 62.2335C76.3389 62.5031 76.1875 62.8688 76.1875 63.25V69C76.1875 69.3812 76.3389 69.7469 76.6085 70.0165C76.8781 70.2861 77.2438 70.4375 77.625 70.4375H83.375C83.7562 70.4375 84.1219 70.2861 84.3915 70.0165C84.6611 69.7469 84.8125 69.3812 84.8125 69V63.25C84.8125 62.8688 84.6611 62.5031 84.3915 62.2335C84.1219 61.9639 83.7562 61.8125 83.375 61.8125ZM81.9375 67.5625H79.0625V64.6875H81.9375V67.5625Z" fill="#4D0814"/>
</svg>
