<svg width="92" height="92" viewBox="0 0 92 92" fill="none" xmlns="http://www.w3.org/2000/svg">
<path d="M33.3169 67.0515C33.3169 65.5571 33.3169 64.719 33.3169 63.2245L25.6614 55.569L25.661 55.5686C24.1665 55.5686 23.3285 55.5686 21.834 55.5686L2.69531 74.7075C2.69531 76.2019 2.69531 77.04 2.69531 78.5345L10.3513 86.1904C11.8457 86.1904 12.6838 86.1904 14.1782 86.1904L33.3169 67.0515Z" stroke="#4D0814" stroke-width="3" stroke-miterlimit="10"/>
<path d="M57.4335 37.5825L33.3168 63.2241" stroke="#4D0814" stroke-width="3" stroke-miterlimit="10"/>
<path d="M25.6613 55.5691L51.3031 31.4521" stroke="#4D0814" stroke-width="3" stroke-miterlimit="10"/>
<path d="M56.2828 13.4648C56.2828 11.9703 56.2828 11.1323 56.2828 9.63781L52.4549 5.80993C52.4549 5.80993 50.1222 5.80957 48.6276 5.80957L37.1439 17.293C37.1439 18.7875 37.1439 19.6256 37.1439 21.12L40.9722 24.9483C42.4666 24.9483 43.3047 24.9483 44.7991 24.9483L56.2828 13.4648Z" stroke="#4D0814" stroke-width="3" stroke-miterlimit="10"/>
<path d="M83.0761 40.2583C83.0761 38.7638 83.0761 37.9257 83.0761 36.4313L79.2483 32.6034C79.2483 32.6034 76.9156 32.603 75.4209 32.603L63.9374 44.0865C63.9374 45.581 63.9374 46.419 63.9374 47.9135L67.7657 51.7417C69.2601 51.7417 70.0982 51.7417 71.5927 51.7417L83.0761 40.2583Z" stroke="#4D0814" stroke-width="3" stroke-miterlimit="10"/>
<path d="M56.2828 13.4648L75.4209 32.603" stroke="#4D0814" stroke-width="3" stroke-miterlimit="10"/>
<path d="M44.7993 24.9482L63.9373 44.0864" stroke="#4D0814" stroke-width="3" stroke-miterlimit="10"/>
<path d="M52.2285 75.364V64.5378H83.0762V75.364" stroke="#4D0814" stroke-width="3" stroke-miterlimit="10"/>
<path d="M89.3047 75.364H46V86.1902H89.3047V75.364Z" stroke="#4D0814" stroke-width="3" stroke-miterlimit="10"/>
</svg>
