<svg width="92" height="80" viewBox="0 0 92 80" fill="none" xmlns="http://www.w3.org/2000/svg">
<g clip-path="url(#clip0_1_246)">
<path d="M46 66.9375C42.5699 66.9337 39.2814 65.5694 36.856 63.144C34.4306 60.7186 33.0663 57.4301 33.0625 54V48.25C33.0625 44.8188 34.4256 41.5281 36.8518 39.1018C39.2781 36.6756 42.5688 35.3125 46 35.3125C49.4312 35.3125 52.7219 36.6756 55.1482 39.1018C57.5744 41.5281 58.9375 44.8188 58.9375 48.25V54C58.9337 57.4301 57.5694 60.7186 55.144 63.144C52.7186 65.5694 49.4301 66.9337 46 66.9375ZM46 38.1875C43.3322 38.1905 40.7745 39.2517 38.8881 41.1381C37.0017 43.0245 35.9405 45.5822 35.9375 48.25V54C35.9375 56.6687 36.9977 59.2282 38.8847 61.1153C40.7718 63.0023 43.3313 64.0625 46 64.0625C48.6687 64.0625 51.2282 63.0023 53.1153 61.1153C55.0023 59.2282 56.0625 56.6687 56.0625 54V48.25C56.0595 45.5822 54.9983 43.0245 53.1119 41.1381C51.2255 39.2517 48.6678 38.1905 46 38.1875Z" fill="#4D0814"/>
<path d="M34.5 49.6875C34.1188 49.6875 33.7531 49.536 33.4835 49.2665C33.2139 48.9969 33.0625 48.6312 33.0625 48.25C33.0625 47.8687 33.2139 47.5031 33.4835 47.2335C33.7531 46.9639 34.1188 46.8125 34.5 46.8125C39.2998 46.8125 46.7547 45.7502 47.5123 43.4832C47.5719 43.3039 47.6663 43.1381 47.79 42.9952C47.9138 42.8524 48.0645 42.7353 48.2334 42.6506C48.4024 42.566 48.5864 42.5155 48.775 42.502C48.9635 42.4885 49.1528 42.5122 49.3321 42.5719C49.5115 42.6315 49.6773 42.7259 49.8202 42.8496C49.963 42.9734 50.0801 43.1241 50.1647 43.293C50.2494 43.462 50.2999 43.646 50.3134 43.8346C50.3269 44.0231 50.3032 44.2124 50.2435 44.3917C48.5588 49.4316 36.8331 49.6875 34.5 49.6875Z" fill="#4D0814"/>
<path d="M57.5001 49.6875C47.5512 49.6875 47.4376 44.1718 47.4376 43.9375C47.435 43.7487 47.4696 43.5613 47.5394 43.3859C47.6092 43.2104 47.7128 43.0505 47.8444 42.9151C47.9761 42.7798 48.133 42.6717 48.3064 42.597C48.4798 42.5223 48.6662 42.4825 48.855 42.4799C49.0438 42.4772 49.2312 42.5118 49.4067 42.5816C49.5821 42.6514 49.742 42.7551 49.8774 42.8867C50.0127 43.0183 50.1208 43.1753 50.1955 43.3487C50.2702 43.5221 50.31 43.7085 50.3126 43.8973C50.3931 44.9035 51.996 46.8125 57.5001 46.8125C57.8814 46.8125 58.247 46.964 58.5166 47.2335C58.7862 47.5031 58.9376 47.8688 58.9376 48.25C58.9376 48.6313 58.7862 48.9969 58.5166 49.2665C58.247 49.5361 57.8814 49.6875 57.5001 49.6875Z" fill="#4D0814"/>
<path d="M63.25 89.9375C62.8688 89.9375 62.5031 89.7861 62.2335 89.5165C61.964 89.2469 61.8125 88.8812 61.8125 88.5V77C61.8125 75.475 61.2067 74.0125 60.1284 72.9341C59.05 71.8558 57.5875 71.25 56.0625 71.25H35.9375C34.4125 71.25 32.95 71.8558 31.8716 72.9341C30.7933 74.0125 30.1875 75.475 30.1875 77V88.5C30.1875 88.8812 30.0361 89.2469 29.7665 89.5165C29.4969 89.7861 29.1312 89.9375 28.75 89.9375C28.3688 89.9375 28.0031 89.7861 27.7335 89.5165C27.4639 89.2469 27.3125 88.8812 27.3125 88.5V77C27.3148 74.7132 28.2242 72.5207 29.8412 70.9037C31.4582 69.2867 33.6507 68.3773 35.9375 68.375H56.0625C58.3493 68.3773 60.5418 69.2867 62.1588 70.9037C63.7758 72.5207 64.6852 74.7132 64.6875 77V88.5C64.6875 88.8812 64.536 89.2469 64.2665 89.5165C63.9969 89.7861 63.6312 89.9375 63.25 89.9375Z" fill="#4D0814"/>
<path d="M47.4377 75.5624H44.5627C44.3261 75.5625 44.0931 75.5041 43.8845 75.3925C43.6759 75.2809 43.498 75.1196 43.3667 74.9228L40.4917 70.6103C40.2801 70.2931 40.2032 69.9048 40.2778 69.5309C40.3525 69.157 40.5727 68.828 40.8899 68.6164C41.2071 68.4048 41.5953 68.3279 41.9692 68.4026C42.3432 68.4773 42.6721 68.6974 42.8837 69.0146L45.3317 72.6874H46.6686L49.1124 69.0146C49.324 68.6974 49.6529 68.4773 50.0268 68.4026C50.4007 68.3279 50.789 68.4048 51.1062 68.6164C51.4234 68.828 51.6435 69.157 51.7182 69.5309C51.7929 69.9048 51.716 70.2931 51.5044 70.6103L48.6294 74.9228C48.4985 75.119 48.3213 75.28 48.1135 75.3915C47.9056 75.5031 47.6736 75.5618 47.4377 75.5624Z" fill="#4D0814"/>
<path d="M45.9997 88.5C45.7154 88.4999 45.4376 88.4156 45.2012 88.2576C44.9649 88.0997 44.7807 87.8752 44.6719 87.6125C44.5631 87.3499 44.5347 87.0609 44.5901 86.7821C44.6455 86.5033 44.7824 86.2472 44.9834 86.0462L48.6663 82.3619L46.0788 74.5792C46.0191 74.3999 45.9954 74.2106 46.0089 74.0221C46.0224 73.8335 46.0729 73.6495 46.1575 73.4805C46.2422 73.3116 46.3593 73.1609 46.5021 73.0371C46.645 72.9134 46.8108 72.819 46.9901 72.7594C47.1695 72.6997 47.3588 72.676 47.5473 72.6895C47.7358 72.703 47.9198 72.7535 48.0888 72.8381C48.2578 72.9228 48.4085 73.0399 48.5322 73.1827C48.656 73.3256 48.7504 73.4914 48.81 73.6707L51.685 82.2957C51.7694 82.5489 51.7817 82.8205 51.7206 83.0802C51.6594 83.3399 51.5271 83.5775 51.3386 83.7663L47.0261 88.0788C46.8914 88.2135 46.7313 88.3201 46.5552 88.3924C46.379 88.4647 46.1901 88.5013 45.9997 88.5Z" fill="#4D0814"/>
<path d="M46.0001 88.5C45.6189 88.4999 45.2533 88.3484 44.9838 88.0788L40.6713 83.7663C40.4827 83.5775 40.3505 83.3399 40.2893 83.0802C40.2281 82.8205 40.2404 82.5488 40.3248 82.2957L43.1998 73.6707C43.2595 73.4914 43.3539 73.3256 43.4776 73.1827C43.6014 73.0399 43.752 72.9228 43.921 72.8381C44.09 72.7535 44.274 72.703 44.4625 72.6895C44.651 72.676 44.8404 72.6997 45.0197 72.7594C45.199 72.819 45.3649 72.9134 45.5077 73.0371C45.6506 73.1609 45.7677 73.3116 45.8523 73.4805C45.9369 73.6495 45.9874 73.8335 46.001 74.0221C46.0145 74.2106 45.9907 74.3999 45.9311 74.5792L43.3436 82.3619L47.0265 86.0462C47.2281 86.2478 47.3651 86.5048 47.4202 86.7846C47.4754 87.0643 47.4461 87.3542 47.336 87.6172C47.226 87.8803 47.0402 88.1046 46.8024 88.2618C46.5645 88.419 46.2852 88.5019 46.0001 88.5Z" fill="#4D0814"/>
<path d="M73.3125 39.75C69.8824 39.7462 66.5939 38.3819 64.1685 35.9565C61.7431 33.5311 60.3788 30.2426 60.375 26.8125V21.0625C60.375 17.6313 61.7381 14.3406 64.1643 11.9143C66.5906 9.48806 69.8813 8.125 73.3125 8.125C76.7437 8.125 80.0344 9.48806 82.4607 11.9143C84.8869 14.3406 86.25 17.6313 86.25 21.0625V26.8125C86.2462 30.2426 84.8819 33.5311 82.4565 35.9565C80.0311 38.3819 76.7426 39.7462 73.3125 39.75ZM73.3125 11C70.6447 11.003 68.087 12.0642 66.2006 13.9506C64.3142 15.837 63.253 18.3947 63.25 21.0625V26.8125C63.25 29.4812 64.3102 32.0407 66.1972 33.9278C68.0843 35.8148 70.6438 36.875 73.3125 36.875C75.9812 36.875 78.5407 35.8148 80.4278 33.9278C82.3148 32.0407 83.375 29.4812 83.375 26.8125V21.0625C83.372 18.3947 82.3108 15.837 80.4244 13.9506C78.538 12.0642 75.9803 11.003 73.3125 11Z" fill="#4D0814"/>
<path d="M61.8125 22.5C61.4313 22.5 61.0656 22.3485 60.796 22.079C60.5264 21.8094 60.375 21.4437 60.375 21.0625C60.375 20.6812 60.5264 20.3156 60.796 20.046C61.0656 19.7764 61.4313 19.625 61.8125 19.625C66.6123 19.625 74.0672 18.5627 74.8248 16.2957C74.9452 15.9335 75.2047 15.6341 75.5459 15.4631C75.8872 15.2922 76.2825 15.2639 76.6446 15.3844C77.0068 15.5048 77.3063 15.7643 77.4772 16.1055C77.6482 16.4468 77.6765 16.842 77.556 17.2042C75.8713 22.2441 64.1456 22.5 61.8125 22.5Z" fill="#4D0814"/>
<path d="M84.8126 22.5C74.8637 22.5 74.7501 16.9843 74.7501 16.75C74.7475 16.5612 74.7821 16.3738 74.8519 16.1984C74.9217 16.0229 75.0253 15.863 75.1569 15.7276C75.4228 15.4543 75.7863 15.2977 76.1675 15.2924C76.5488 15.287 76.9165 15.4334 77.1899 15.6992C77.4632 15.965 77.6198 16.3285 77.6251 16.7098C77.7056 17.716 79.3085 19.625 84.8126 19.625C85.1939 19.625 85.5595 19.7765 85.8291 20.046C86.0987 20.3156 86.2501 20.6813 86.2501 21.0625C86.2501 21.4438 86.0987 21.8094 85.8291 22.079C85.5595 22.3486 85.1939 22.5 84.8126 22.5Z" fill="#4D0814"/>
<path d="M90.5625 62.7501C90.1812 62.7501 89.8156 62.5986 89.546 62.329C89.2764 62.0594 89.125 61.6938 89.125 61.3126V49.8126C89.125 48.2876 88.5192 46.825 87.4408 45.7467C86.3625 44.6684 84.9 44.0626 83.375 44.0626H63.25C62.3567 44.0587 61.4749 44.2649 60.6759 44.6644C59.8769 45.0639 59.1829 45.6456 58.65 46.3626C58.5367 46.5136 58.3948 46.6408 58.2324 46.737C58.07 46.8332 57.8902 46.8964 57.7033 46.9231C57.5164 46.9498 57.3261 46.9394 57.1432 46.8926C56.9604 46.8457 56.7885 46.7633 56.6375 46.6501C56.4865 46.5368 56.3592 46.3949 56.2631 46.2325C56.1669 46.07 56.1036 45.8902 56.0769 45.7033C56.0503 45.5165 56.0606 45.3262 56.1075 45.1433C56.1543 44.9604 56.2367 44.7886 56.35 44.6376C57.15 43.5628 58.1911 42.6907 59.3895 42.0915C60.5879 41.4923 61.9102 41.1827 63.25 41.1876H83.375C85.6618 41.1898 87.8543 42.0993 89.4713 43.7163C91.0883 45.3333 91.9977 47.5258 92 49.8126V61.3126C92 61.6938 91.8485 62.0594 91.579 62.329C91.3094 62.5986 90.9437 62.7501 90.5625 62.7501Z" fill="#4D0814"/>
<path d="M74.7502 48.3749H71.8752C71.6386 48.375 71.4056 48.3166 71.197 48.205C70.9884 48.0934 70.8105 47.9321 70.6792 47.7353L67.8042 43.4228C67.5926 43.1056 67.5157 42.7173 67.5903 42.3434C67.665 41.9695 67.8852 41.6405 68.2024 41.4289C68.5196 41.2173 68.9078 41.1404 69.2817 41.2151C69.6557 41.2898 69.9846 41.5099 70.1962 41.8271L72.6442 45.4999H73.9811L76.4249 41.8271C76.5296 41.6701 76.6643 41.5352 76.8212 41.4302C76.9781 41.3252 77.1542 41.2521 77.3393 41.2151C77.5245 41.1781 77.7151 41.178 77.9003 41.2147C78.0855 41.2514 78.2616 41.3242 78.4187 41.4289C78.5757 41.5337 78.7106 41.6684 78.8156 41.8253C78.9207 41.9822 78.9937 42.1582 79.0307 42.3434C79.0677 42.5285 79.0678 42.7191 79.0311 42.9043C78.9945 43.0895 78.9216 43.2657 78.8169 43.4228L75.9419 47.7353C75.811 47.9315 75.6338 48.0925 75.426 48.204C75.2181 48.3156 74.9861 48.3743 74.7502 48.3749Z" fill="#4D0814"/>
<path d="M73.3122 61.3125C73.0279 61.3124 72.7501 61.2281 72.5137 61.0701C72.2774 60.9122 72.0932 60.6877 71.9844 60.425C71.8756 60.1624 71.8472 59.8734 71.9026 59.5946C71.958 59.3158 72.0949 59.0597 72.2959 58.8587L75.9788 55.1744L73.3913 47.3917C73.2708 47.0296 73.2991 46.6343 73.47 46.293C73.641 45.9518 73.9404 45.6923 74.3026 45.5719C74.6648 45.4514 75.06 45.4797 75.4013 45.6506C75.7426 45.8216 76.002 46.121 76.1225 46.4832L78.9975 55.1082C79.0819 55.3613 79.0942 55.633 79.0331 55.8927C78.9719 56.1524 78.8396 56.39 78.6511 56.5788L74.3386 60.8913C74.2039 61.026 74.0438 61.1326 73.8677 61.2049C73.6915 61.2772 73.5026 61.3138 73.3122 61.3125Z" fill="#4D0814"/>
<path d="M73.3126 61.3125C72.9314 61.3124 72.5658 61.1609 72.2963 60.8913L67.9838 56.5788C67.7952 56.39 67.663 56.1524 67.6018 55.8927C67.5406 55.633 67.5529 55.3613 67.6373 55.1082L70.5123 46.4832C70.572 46.3039 70.6664 46.1381 70.7901 45.9952C70.9139 45.8524 71.0645 45.7353 71.2335 45.6506C71.4025 45.566 71.5865 45.5155 71.775 45.502C71.9635 45.4885 72.1529 45.5122 72.3322 45.5719C72.5115 45.6315 72.6774 45.7259 72.8202 45.8496C72.9631 45.9734 73.0802 46.1241 73.1648 46.293C73.2494 46.462 73.2999 46.646 73.3135 46.8346C73.327 47.0231 73.3032 47.2124 73.2436 47.3917L70.6561 55.1744L74.339 58.8587C74.5406 59.0603 74.6776 59.3173 74.7327 59.5971C74.7879 59.8768 74.7586 60.1667 74.6485 60.4297C74.5385 60.6928 74.3527 60.9171 74.1149 61.0743C73.877 61.2315 73.5977 61.3144 73.3126 61.3125Z" fill="#4D0814"/>
<path d="M18.6875 39.75C15.2574 39.7462 11.9689 38.3819 9.54351 35.9565C7.11808 33.5311 5.7538 30.2426 5.75 26.8125V21.0625C5.75 17.6313 7.11305 14.3406 9.53931 11.9143C11.9656 9.48806 15.2563 8.125 18.6875 8.125C22.1187 8.125 25.4094 9.48806 27.8357 11.9143C30.2619 14.3406 31.625 17.6313 31.625 21.0625V26.8125C31.6212 30.2426 30.2569 33.5311 27.8315 35.9565C25.4061 38.3819 22.1176 39.7462 18.6875 39.75ZM18.6875 11C16.0197 11.003 13.462 12.0642 11.5756 13.9506C9.68917 15.837 8.62804 18.3947 8.625 21.0625V26.8125C8.625 29.4812 9.68515 32.0407 11.5722 33.9278C13.4593 35.8148 16.0188 36.875 18.6875 36.875C21.3562 36.875 23.9157 35.8148 25.8028 33.9278C27.6898 32.0407 28.75 29.4812 28.75 26.8125V21.0625C28.747 18.3947 27.6858 15.837 25.7994 13.9506C23.913 12.0642 21.3553 11.003 18.6875 11Z" fill="#4D0814"/>
<path d="M7.1875 22.5C6.80625 22.5 6.44062 22.3485 6.17103 22.079C5.90145 21.8094 5.75 21.4437 5.75 21.0625C5.75 20.6812 5.90145 20.3156 6.17103 20.046C6.44062 19.7764 6.80625 19.625 7.1875 19.625C11.9873 19.625 19.4422 18.5627 20.1998 16.2957C20.2594 16.1164 20.3538 15.9506 20.4775 15.8077C20.6013 15.6649 20.752 15.5478 20.9209 15.4631C21.0899 15.3785 21.2739 15.328 21.4625 15.3145C21.651 15.301 21.8403 15.3247 22.0196 15.3844C22.199 15.444 22.3648 15.5384 22.5077 15.6621C22.6505 15.7859 22.7676 15.9366 22.8522 16.1055C22.9369 16.2745 22.9874 16.4585 23.0009 16.6471C23.0144 16.8356 22.9907 17.0249 22.931 17.2042C21.2463 22.2441 9.52056 22.5 7.1875 22.5Z" fill="#4D0814"/>
<path d="M30.1876 22.5C20.2387 22.5 20.1251 16.9843 20.1251 16.75C20.1225 16.5612 20.1571 16.3738 20.2269 16.1984C20.2967 16.0229 20.4003 15.863 20.5319 15.7276C20.7978 15.4543 21.1613 15.2977 21.5425 15.2924C21.9238 15.287 22.2915 15.4334 22.5649 15.6992C22.8382 15.965 22.9948 16.3285 23.0001 16.7098C23.0806 17.716 24.6835 19.625 30.1876 19.625C30.5689 19.625 30.9345 19.7765 31.2041 20.046C31.4737 20.3156 31.6251 20.6813 31.6251 21.0625C31.6251 21.4438 31.4737 21.8094 31.2041 22.079C30.9345 22.3486 30.5689 22.5 30.1876 22.5Z" fill="#4D0814"/>
<path d="M1.4375 62.7501C1.05625 62.7501 0.690618 62.5986 0.421034 62.329C0.15145 62.0594 0 61.6938 0 61.3126V49.8126C0.00228337 47.5258 0.911719 45.3333 2.52873 43.7163C4.14573 42.0993 6.33821 41.1898 8.625 41.1876H28.75C30.0898 41.1827 31.4121 41.4923 32.6105 42.0915C33.8089 42.6907 34.85 43.5628 35.65 44.6376C35.7633 44.7886 35.8457 44.9604 35.8925 45.1433C35.9394 45.3262 35.9497 45.5165 35.9231 45.7033C35.8964 45.8902 35.8331 46.07 35.7369 46.2325C35.6408 46.3949 35.5135 46.5368 35.3625 46.6501C35.2115 46.7633 35.0396 46.8457 34.8568 46.8926C34.6739 46.9394 34.4836 46.9498 34.2967 46.9231C34.1098 46.8964 33.93 46.8332 33.7676 46.737C33.6052 46.6408 33.4633 46.5136 33.35 46.3626C32.8171 45.6456 32.1231 45.0639 31.3241 44.6644C30.5251 44.2649 29.6433 44.0587 28.75 44.0626H8.625C7.10001 44.0626 5.63747 44.6684 4.55914 45.7467C3.4808 46.825 2.875 48.2876 2.875 49.8126V61.3126C2.875 61.6938 2.72355 62.0594 2.45397 62.329C2.18438 62.5986 1.81875 62.7501 1.4375 62.7501Z" fill="#4D0814"/>
<path d="M20.1252 48.3749H17.2502C17.0136 48.375 16.7806 48.3166 16.572 48.205C16.3634 48.0934 16.1855 47.9321 16.0542 47.7353L13.1792 43.4228C12.9676 43.1056 12.8907 42.7173 12.9653 42.3434C13.04 41.9695 13.2602 41.6405 13.5774 41.4289C13.8946 41.2173 14.2828 41.1404 14.6567 41.2151C15.0307 41.2898 15.3596 41.5099 15.5712 41.8271L18.0192 45.4999H19.3561L21.7999 41.8271C22.0115 41.5099 22.3404 41.2898 22.7143 41.2151C23.0882 41.1404 23.4765 41.2173 23.7937 41.4289C24.1109 41.6405 24.331 41.9695 24.4057 42.3434C24.4804 42.7173 24.4035 43.1056 24.1919 43.4228L21.3169 47.7353C21.186 47.9315 21.0088 48.0925 20.801 48.204C20.5931 48.3156 20.3611 48.3743 20.1252 48.3749Z" fill="#4D0814"/>
<path d="M18.6872 61.3125C18.4029 61.3124 18.1251 61.2281 17.8887 61.0701C17.6524 60.9122 17.4682 60.6877 17.3594 60.425C17.2506 60.1624 17.2222 59.8734 17.2776 59.5946C17.333 59.3158 17.4699 59.0597 17.6709 58.8587L21.3538 55.1744L18.7663 47.3917C18.7066 47.2124 18.6829 47.0231 18.6964 46.8346C18.7099 46.646 18.7604 46.462 18.845 46.293C18.9297 46.1241 19.0467 45.9734 19.1896 45.8496C19.3325 45.7259 19.4983 45.6315 19.6776 45.5719C20.0398 45.4514 20.435 45.4797 20.7763 45.6506C21.1176 45.8216 21.377 46.121 21.4975 46.4832L24.3725 55.1082C24.4569 55.3613 24.4692 55.633 24.4081 55.8927C24.3469 56.1524 24.2146 56.39 24.0261 56.5788L19.7136 60.8913C19.5789 61.026 19.4188 61.1326 19.2427 61.2049C19.0665 61.2772 18.8776 61.3138 18.6872 61.3125Z" fill="#4D0814"/>
<path d="M18.6876 61.3125C18.3064 61.3124 17.9408 61.1609 17.6713 60.8913L13.3588 56.5788C13.1702 56.39 13.038 56.1524 12.9768 55.8927C12.9156 55.633 12.9279 55.3613 13.0123 55.1082L15.8873 46.4832C16.0078 46.121 16.2672 45.8216 16.6085 45.6506C16.7775 45.566 16.9615 45.5155 17.15 45.502C17.3385 45.4885 17.5279 45.5122 17.7072 45.5719C17.8865 45.6315 18.0524 45.7259 18.1952 45.8496C18.3381 45.9734 18.4552 46.1241 18.5398 46.293C18.6244 46.462 18.6749 46.646 18.6885 46.8346C18.702 47.0231 18.6782 47.2124 18.6186 47.3917L16.0311 55.1744L19.714 58.8587C19.9156 59.0603 20.0526 59.3173 20.1077 59.5971C20.1629 59.8768 20.1336 60.1667 20.0235 60.4297C19.9135 60.6928 19.7277 60.9171 19.4899 61.0743C19.252 61.2315 18.9727 61.3144 18.6876 61.3125Z" fill="#4D0814"/>
</g>
<defs>
<clipPath id="clip0_1_246">
<rect width="92" height="80" fill="white"/>
</clipPath>
</defs>
</svg>
